<?xml version="1.0" encoding="utf-8"?>
<svg xmlns="http://www.w3.org/2000/svg" fill="none" height="624" width="752">
  <path d="M361.796 534.483s163.946-17.647 225.471-100.119c26.91-30.424 68.622-42.17 49.137 4.627-11.098 26.651-33.334 36.823-33.334 36.823s62.277 13.774-60.941 34.891c0 0 38.126 28.415-50.689 22.309 0 0 21.603 29.409-129.644 1.469" fill="url(#a)"/>
  <path d="M678.167 372.195c8.66-5.5 19.68-5.334 24.614.371s1.913 14.788-6.746 20.288c-8.66 5.499-19.68 5.333-24.614-.372-4.934-5.704-1.914-14.788 6.746-20.287m-40.173 8.586c4.783-2.389 10.201-2.073 12.101.707 1.899 2.779-.439 6.969-5.223 9.358s-10.201 2.072-12.101-.707c-1.899-2.78.439-6.97 5.223-9.358" fill="#fff"/>
  <path d="M665.5 231s-31.26-94.939-137.043-138.032c-66.105-26.93-57.063-61.644-33.318-50.747 14.251 6.55 44.332 38.203 44.332 38.203s-.541-53.915 50.585 22.364c0 0 9.444-81.788 75.444 128.212" fill="url(#b)"/>
  <path d="M489.531 21.848c1.641-4.947-3.096-11.045-10.581-13.622s-14.882-.656-16.523 4.29c-1.641 4.947 3.096 11.046 10.581 13.623s14.882.655 16.523-4.291m-33.621 5.22c.641-1.93-1.215-4.313-4.144-5.322-2.929-1.008-5.823-.26-6.463 1.67-.641 1.93 1.215 4.313 4.144 5.322 2.929 1.008 5.823.26 6.463-1.67" fill="#fff"/>
  <path d="M305.916 263.926s76.372.715 121.306-58.031c15.749-20.597 29.738-8.401 23.182 6.469s-18.782 18.701-18.782 18.701 38.778.699-17.988 27.03c0 0-48.943 25.931-107.718 5.831" fill="url(#c)"/>
  <path d="M455.095 177.354c2.277-3.355 2.27-7.328-.015-8.873s-5.983-.078-8.259 3.277-2.27 7.328.015 8.873 5.983.078 8.259-3.277m6.918 13.956c1.059-1.561 1.053-3.411-.013-4.132s-2.789-.04-3.848 1.52-1.053 3.411.013 4.132c1.067.721 2.789.04 3.848-1.52" fill="#fff"/>
  <path d="M396.337 486.218c49.833-53.666 213.067-155.036 158.5-82-14.052 18.809-70.455 60.308-71.837 76.282 24.5-4.5 48.5-23.5 48.5-23.5 4.285 48.29 61.102 90.834 116.183 101.228 2.138.403 2.292 3.396.153 3.794-14.442 2.689-23.182.193-33.999-2.304-13-3 9.358 8.254 3 9.145-3.771.528-15.5-2.645-29.5-6.145s11.401 7.885 8 7.973c-108.223 2.798-117.822-100.794-199-84.473m-301.657-96.5c-1.001 20.187 24.187 70.505 40.647 83.512-15.939-15.29-40.991-72.711-40.647-83.512" fill="#000C2A"/>
  <path clip-rule="evenodd" d="M99.467 299.499c12.939.722 18.707 1.043 44.87-14.281 33.427-19.578 95.063-11.87 178.134-1.481q5.862.734 11.866 1.481c112.5 14 163-79 154-114.5s-38.5-40.5-102.5-31c-51.2 7.6-86.333-36.833-97.5-60 0 0 16-.816 21.5 12.592s8 11.908 8-5.092c0-9.185 5.4-.563 10.05 6.86 3.956 6.317 7.369 11.766 6.45 4.64-2-15.5 4.5-28.5 8.5-12.5s9 30.5 43 28.5-22-35-39-44-8-10 5.5-6 5-4.5-9.5-13-4.5-11.5 13.5-2c9.126 4.817 2.7-3.092-3.899-11.212-6.417-7.896-12.996-15.992-5.601-12.788 15 6.5 38.9 32.5 46.5 44.5.892 1.409 1.74 2.813 2.58 4.204 8.109 13.427 15.504 25.672 54.92 29.296 22.134 2.036 102.261 18.569 152.779 64.092 15.854-22.797 28.646-48.87 36.35-78.658.981-3.792 3.758-3.678 3.672.238-.327 14.959-2.681 38.202-4.801 46.328-1.185 4.542.827.039 3.757-6.52 4.491-10.049 11.138-24.926 11.743-19.48.633 3.193-1.5 23-9 40.5 0 0 10.168-18.779 10-13.5-.953 29.827-14.358 64.926-56.715 115.449-4.05 6.999-6.661 12.165-6.122 13.333 1.082 2.344 13.147-9.259 25.035-20.69 11.679-11.232 23.188-22.299 23.938-19.81 12.604 41.824 2.009 96.887-53.136 168.718-173.5 226-478.156 72.25-518-21.5-34-80 12.5-73 12.5-73 7.07-.252 12.259.037 16.63.281" fill="#0069FF" fill-rule="evenodd"/>
  <path clip-rule="evenodd" d="M364.219 139.916c-27.443-8.162-20.291-30.158-13.797-35.515-4.066-5.069-5.913-11.495-7.585-18.183-4-16-10.5-3-8.5 12.5.919 7.126-2.494 1.677-6.45-4.639-4.65-7.424-10.05-16.046-10.05-6.86 0 16.999-2.5 18.499-8 5.091s-21.5-12.592-21.5-12.592c9.517 19.744 36.441 54.934 75.882 60.198m11.965-90.607c-9.6-10.06-20.889-19.925-29.347-23.59-7.395-3.205-.816 4.891 5.601 12.787 6.599 8.12 13.025 16.03 3.899 11.212-18-9.5-28-6.5-13.5 2s23 17 9.5 13-22.5-3-5.5 6c13.365 7.076 50.838 28.987 49.726 39.004 11.993-.421 4.219-11.367-5.107-24.497-8.775-12.353-18.922-26.64-15.272-35.916" fill="url(#d)" fill-rule="evenodd"/>
  <path d="M82.1 392.153c-7.653-24.499-1.6-42.653-21.6-57.653.982-33.582 30.62-47.509 62-26.5 111.782 62.429 277 48 277 9 0 0 115.82-25.592 117-66 34.5-62.5-9.156-119.28-57.451-146.234-3.251-.501-6.017-.846-8.212-1.048-39.416-3.624-46.811-15.87-54.92-29.296a229 229 0 0 0-2.58-4.204c-7.6-12-31.5-38-46.5-44.5-7.395-3.204-.816 4.892 5.601 12.788 6.599 8.12 13.025 16.03 3.899 11.212-18-9.5-28-6.5-13.5 2s23 17 9.5 13-22.5-3-5.5 6 73 42 39 44-39-12.5-43-28.5-10.5-3-8.5 12.5c.919 7.126-2.494 1.677-6.45-4.64-4.65-7.423-10.05-16.045-10.05-6.86 0 17-2.5 18.5-8 5.092s-21.5-12.592-21.5-12.592c11.167 23.167 46.3 67.6 97.5 60 64-9.5 93.5-4.5 102.5 31s-41.5 128.5-154 114.5q-5.965-.742-11.791-1.472l-.075-.009c-83.071-10.389-144.707-18.097-178.134 1.481-26.163 15.324-31.931 15.003-44.87 14.281-4.371-.244-9.56-.533-16.63-.281 0 0-46.5-7-12.5 73 2.725 6.411 6.688 13.103 11.763 19.935" fill="#C6E3FF"/>
  <path d="M458.514 138.568a64 64 0 0 0-3.942-.995c1.064-1.589 2.407-2.473 3.287-2.05.749.361.965 1.571.655 3.045m14.26-18.163c.782.104 1.273 1.266 1.097 2.596-.177 1.33-.953 2.325-1.735 2.222s-1.273-1.266-1.097-2.596c.177-1.33.954-2.325 1.735-2.222m-84.159 7.83c1.104-2.288 1.127-4.562.052-5.08-1.076-.517-2.843.918-3.947 3.206s-1.128 4.561-.052 5.079 2.843-.918 3.947-3.205m125.569 53.316c1.283 1.391-.083 4.729-3.049 7.455-2.967 2.727-6.411 3.809-7.694 2.418-1.282-1.391.083-4.729 3.049-7.455 2.967-2.727 6.411-3.809 7.694-2.418m20.041 23.129c2.679-3.009 3.703-6.466 2.288-7.722s-4.735.164-7.414 3.172-3.703 6.466-2.288 7.722 4.734-.164 7.414-3.172m-34.298 32.497c1.128 1.518-.582 4.694-3.819 7.093s-6.778 3.113-7.907 1.594c-1.128-1.518.582-4.694 3.82-7.092 3.237-2.399 6.777-3.113 7.906-1.595m-283.665 58.697c4.615-1.447 7.805-4.373 7.125-6.537-.681-2.164-4.974-2.745-9.589-1.298-4.615 1.446-7.805 4.373-7.124 6.537.68 2.163 4.973 2.745 9.588 1.298M453.18 281.54c4.288-2.236 6.911-5.678 5.859-7.688s-5.38-1.827-9.667.409c-4.288 2.236-6.911 5.678-5.859 7.688s5.38 1.827 9.667-.409m-66.871 27.094c4.532-1.688 7.563-4.779 6.769-6.903-.794-2.125-5.112-2.479-9.644-.791s-7.562 4.779-6.768 6.904 5.111 2.479 9.643.79m-83.591-14.058c.608 2.185-2.678 5.004-7.339 6.296-4.66 1.292-8.932.568-9.539-1.617-.608-2.185 2.678-5.004 7.338-6.296s8.932-.568 9.54 1.617m19.744 32.657c4.661-1.292 7.947-4.111 7.339-6.296s-4.879-2.909-9.54-1.617-7.946 4.111-7.339 6.297c.608 2.185 4.879 2.908 9.54 1.616m-91.993-5.698c4.673-1.251 7.983-4.041 7.395-6.231-.588-2.191-4.853-2.952-9.525-1.702s-7.983 4.041-7.395 6.231c.589 2.191 4.853 2.952 9.525 1.702m44.311 14.423c.66 2.17-2.557 5.067-7.185 6.47s-8.916.781-9.576-1.389 2.557-5.066 7.186-6.469 8.916-.782 9.575 1.388m-116.675-40.402c.503 1.19-.741 2.85-2.777 3.708s-4.096.588-4.599-.602c-.502-1.191.741-2.851 2.777-3.709 2.037-.857 4.096-.588 4.599.603m262.452-163.603c1.065-1.371 1.278-2.987.475-3.609s-2.318-.014-3.383 1.358c-1.065 1.371-1.278 2.987-.475 3.609.804.622 2.318.014 3.383-1.358m20.072-6.773c.505.605.078 1.792-.955 2.651s-2.278 1.065-2.783.46-.078-1.791.955-2.65 2.279-1.066 2.783-.461m64.201 31.428c.578.537 1.786.175 2.699-.809.912-.983 1.184-2.216.606-2.753s-1.786-.174-2.699.81c-.913.983-1.184 2.216-.606 2.752m-138.151-32.692c.303-1.136.009-2.2-.656-2.377-.666-.177-1.451.6-1.754 1.736s-.009 2.2.656 2.377c.666.177 1.451-.6 1.754-1.736m-189.77 196.605c2.02-.895 3.233-2.577 2.708-3.758s-2.588-1.413-4.608-.518c-2.021.894-3.234 2.577-2.709 3.758s2.588 1.413 4.609.518m65.049-32.215c.525 1.181-.688 2.864-2.708 3.759-2.021.894-4.084.662-4.609-.519s.688-2.863 2.709-3.758 4.083-.663 4.608.518m93.788 14.615c2.129-.594 3.572-2.085 3.224-3.329-.349-1.244-2.357-1.771-4.485-1.177s-3.572 2.085-3.224 3.329 2.357 1.771 4.485 1.177M216.085 340.67c2.082-.741 3.418-2.327 2.984-3.544s-2.474-1.604-4.556-.864-3.419 2.327-2.984 3.544c.434 1.217 2.474 1.604 4.556.864m59.406-23.907c.269 1.263-1.265 2.661-3.426 3.12s-4.133-.191-4.403-1.455c-.27-1.263 1.264-2.66 3.426-3.12s4.133.191 4.403 1.455" fill="#0069FF"/>
  <path d="M103.834 299.714a218 218 0 0 1-4.368-.215c-4.37-.244-9.56-.533-16.629-.281 0 0-28.895-4.349-24.475 32.995 2.421-26.325 32.475-25.995 32.475-25.995 3.866-.138 6.198-2.141 8.233-3.889 1.576-1.353 2.973-2.552 4.764-2.615m.407.014c39.541 18.009 50.362 23.763 50.901 22.924.836-1.305-23.14-18.523-2.805-30.434 28.108-16.463 80.226-9.403 145.491-.563 12.351 1.673 25.173 3.41 38.392 5.063 112.5 14 169.117-83.5 160.117-119-4.085-16.112-12.108-27.281-25.637-33.786 8.803 5.638 14.481 14.336 17.637 26.786 9 35.5-41.5 128.5-154 114.5q-5.965-.742-11.791-1.472l-.075-.009c-83.071-10.389-144.707-18.097-178.134 1.481-22.739 13.319-30.071 14.819-40.096 14.51m267.316-159.194c-38.194-4.827-63.988-34.921-73.337-54.316 0 0 2.263-3.327 6.136-1.372-6.843-5.596-16.019-5.128-16.019-5.128 10.096 20.945 39.782 59.273 83.22 60.816" fill="#F4F9FF"/>
  <path d="M315.307 101.29c5.413 12.992 5.413-6.098 5.413-11.072 0-4.537 1.55-4.085 3.679-1.57-3.499-5.164-6.562-8.347-6.562-1.43 0 9.69-.812 14.345-2.53 14.072m18.793.761c2.019.334 2.62-5.251 2.62-9.833 0-8.867 2.041-11.885 4.49-10.756-3.891-7.892-8.618 3.73-6.873 17.256.275 2.132.162 3.139-.237 3.333m60.398 10.65c26.012-6.74-16.531-28.916-35.675-38.896a699 699 0 0 1-3.986-2.087c-9.787-5.181-13.315-8.208-11.972-9.08-6.985-.809-8.471 1.493 3.972 8.08 14.925 7.902 59.912 34.303 47.661 41.983M358.691 63.72c1.709-1.15 1.191-3.717-6.971-8.502-10.373-6.08-11.534-10.881-4.765-9.644-11.559-3.998-15.829-.72-4.118 6.144 8.034 4.71 14.226 9.42 15.854 12.003m1.809-12.579c7.204 3.662 6.072 1.913-.062-5.636-6.417-7.896-12.996-15.992-5.601-12.788 3.999 1.733 8.631 4.853 13.418 8.723-7.473-6.998-15.208-13.032-21.418-15.723-7.395-3.204-.816 4.892 5.601 12.788 4.954 6.097 9.812 12.075 8.062 12.636M88.674 400.361c-3.172-5.024-19.154-30.992-21.454-47.643a30 30 0 0 1-.116-1.064c-.356-3.612-1.184-12.008-8.029-14.646 1.65 9.297 5.16 20.852 11.262 35.21 3.808 8.961 10.036 18.47 18.337 28.143" fill="#F4F9FF"/>
  <path d="M639.966 89.152c-33.327 128.854-161.853 188.202-221.629 213.566l129.5 64.5c-4.667-12.166-5.481-51.459 39.5-102 51.304-57.645 66.967-96.17 68-128.5.168-5.279-10 13.5-10 13.5 7.5-17.5 9.633-37.307 9-40.5-1-9-18.5 37.5-15.5 26 2.12-8.126 4.474-31.369 4.802-46.328.085-3.916-2.692-4.03-3.673-.238" fill="url(#e)"/>
  <path d="M383.8 57.73c4.073 4.763 7.431 9.163 9.537 12.488.892 1.409 1.74 2.813 2.58 4.204 2.431 4.025 4.798 7.944 7.982 11.557 3.041 4.844 5.495 8.592 7.821 10.74 4.173 3.851 14.323 6.879 23.04 9.479 4.86 1.45 9.275 2.767 11.96 4.02-19.283-6.287-36.105-3.438-42.513-2.352-1.235.209-2.083.352-2.487.352 5.906-3.796-8.475-36.541-17.92-50.488" fill="#1433D6"/>
  <path d="M452.72 111.218c-26.5-4.5-51.333-.666-59 2 2.5-1.5 8.5-4.5 9-6.5 11.111-2.511 32.5-2 50 4.5" fill="#0069FF"/>
  <path d="M154.337 307c37.297-.015 59.598 7.718 59.598 7.718s-7.598-27.131-29.598-25.5-30 17.782-30 17.782" fill="#000C2A"/>
  <path d="M181.837 302.718a4.5 4.5 0 1 0 0-9 4.5 4.5 0 0 0 0 9" fill="#fff"/>
  <path clip-rule="evenodd" d="M633.026 204.588c.862 1.614-42.813 64.25-42.026 65.912.854 1.804 46.164-57.361 46.926-55.5 17.586 42.928 10.067 101.011-49.589 178.718-160.01 208.429-431.575 93.863-504.09 1.249C89.5 347 68.5 337.5 68.5 337.5L113 305c33 10.5-3 34 41.5 64.5 67.623 46.348 274.5 26.718 313-13.5 28.5-35-43-20 73.921-94.141 39.086-27.038 86.567-59.882 101.989-174.289.158.47.245 1.076.229 1.82-.327 14.959-2.682 38.202-4.802 46.328-1.184 4.542.828.039 3.758-6.52 4.491-10.049 11.137-24.926 11.742-19.48.634 3.193-1.5 23-9 40.5 0 0 10.169-18.779 10-13.5-.621 19.445-6.534 41.131-22.311 67.87" fill="#1433D6" fill-rule="evenodd"/>
  <path d="M462.744 105.369c31.304 5.372 97.169 23.059 140.873 62.441-9.969 14.335-21.149 27.375-33.036 39.229-16.147-48.969-63.822-84.995-107.837-101.67" fill="#1433D6"/>
  <path d="M69 338c-3-4-9.5-3.5-10.5-3.5l5-29L105 300c15 5.5 24 26.5 12.5 25.5s-29 4-31 12.5-14.5 4-17.5 0" fill="#000C2A"/>
  <path d="M51.487 328.259s-1.23 3.699 3.56 5.83c4.79 2.13 7.79-5.37 15.79-2.87l6.5-1c-2.5-6.001 16-12.501 22.5-15.001 6.51-16.41-37.88-8.55-42.5-5.42s-5.84 18.451-5.84 18.451z" fill="#000C2A"/>
  <path d="M77.337 330.218c-5.5-2-9.27-14.38-3.5-15.98 7.81-2.17 15.78 5.02 28.89 0s2.61-22.02-20.53-24.94-32.86 5.92-34.7 17.08-.66 23.84 7.55 27.72c0 0-8.21-8.88 3.87-13.35 0 0 9.42 15.47 18.42 9.47" fill="#0069FF"/>
  <path d="M73.837 314.238c-5.77 1.6-2 13.98 3.5 15.98-9 6-18.42-9.47-18.42-9.47-12.08 4.47-3.87 13.35-3.87 13.35a11 11 0 0 1-1.598-.924c-1.759-5.806-2.728-13.79 1.271-17.456 6-5.5 12-5.5 16.5-5 4.359.485 31.236.969 36.553-6.726 1.697 4.226.256 8.216-5.046 10.246-7.709 2.952-13.64 1.682-18.808.576-3.62-.775-6.864-1.47-10.082-.576" fill="#1433D6"/>
  <path d="M51.319 331.26c-2.924-5.757-3.092-14.181-1.822-21.882 1.84-11.16 11.56-20 34.7-17.08 10.944 1.381 19.061 5.912 23.19 10.835-2.974-5.97-12.042-12.175-25.19-13.835-23.14-2.92-32.86 5.92-34.7 17.08-1.514 9.18-.984 19.389 3.822 24.882" fill="#fff"/>
  <path d="M75.96 306.04c3.292 0 5.96-1.576 5.96-3.52S79.252 299 75.96 299 70 300.576 70 302.52s2.668 3.52 5.96 3.52m12.2-5.5c1.193 0 2.16-.569 2.16-1.27s-.967-1.27-2.16-1.27-2.16.569-2.16 1.27.967 1.27 2.16 1.27" fill="#fff"/>
  <path d="M642.5 86.5C610 213 474 292 396.5 307.5c0 0 0 59.923 118-26.5s74.837-12.782 74.837-12.782C640.641 210.573 640 178 652 146c.168-5.279-9.5 11-9.5 11l6.5-31.5c-1-9-12.78 21.718-9.78 10.218s5.749-43.486 3.28-49.218" fill="#C6E3FF"/>
  <path clip-rule="evenodd" d="M484 348c20.72-18.5 7-40 45-60.5 83-50 102.798-107.537 110.316-175.023a422 422 0 0 0 4.093-24.907c.159.47.246 1.076.23 1.82-.328 14.959-2.682 38.202-4.802 46.328-1.185 4.542.827.039 3.758-6.52 4.49-10.049 11.137-24.926 11.742-19.48.633 3.193-1.5 23-9 40.5 0 0 10.168-18.779 10-13.5-.618 19.342-10 70.542-50.837 114.782-.084.142 12-13 0 0 16-14 33-37.5 33-37.5 18.5 45 9.436 103.388-49.163 179.718-131.518 171.314-338.398 124.422-448.172 50.864C89 410.297 88.5 377.564 144 407c90.5 48 225.5 57 309.5 9.5 91.619-51.809 58-68.5 30.5-68.5" fill="#000C2A" fill-rule="evenodd"/>
  <path d="M420.159 301.943c60.527-25.789 186.815-85.232 219.807-212.79.981-3.793 3.758-3.679 3.672.237l-.002.085c-.613.269-1.254 1.16-1.64 2.684-31.925 125.967-146.483 192.528-221.837 209.784m235.128-163.92q.029-.654.05-1.305c.118-3.691-4.818 4.379-7.798 9.568 1.23-1.65 5.691-7.497 7.748-8.263m-.86-25.846c.037-1.144.004-1.985-.09-2.459-.605-5.446-7.252 9.43-11.743 19.48-1.647 3.688-3.005 6.726-3.667 7.871-.312 2.293 2.177-2.324 5.365-8.241 3.443-6.389 7.702-14.293 10.135-16.651M276.364 319.212c23.552 4.306 43.266 4.394 44.033.197s-17.703-11.089-41.255-15.395c-23.551-4.305-43.265-4.394-44.033-.197-.767 4.197 17.703 11.089 41.255 15.395m63.543-2.859c6.179 1.458 11.636.739 12.19-1.607.553-2.345-4.007-5.429-10.185-6.887s-11.636-.739-12.189 1.606 4.006 5.429 10.184 6.888" fill="#F4F9FF"/>
  <path d="M318.699 363.175c.608 2.185-2.678 5.004-7.339 6.296-4.66 1.292-8.932.569-9.539-1.616-.608-2.186 2.678-5.005 7.338-6.297s8.933-.568 9.54 1.617M433.5 349.919c4.661-1.293 7.947-4.112 7.339-6.297s-4.879-2.909-9.54-1.616-7.947 4.111-7.339 6.296 4.879 2.909 9.54 1.617m-271.841-5.488c4.25-2.307 6.816-5.792 5.731-7.784-1.085-1.993-5.409-1.738-9.659.569S150.915 343.008 152 345s5.41 1.738 9.659-.569m24.674 10.662c1.085 1.993-1.481 5.478-5.731 7.784-4.249 2.307-8.574 2.562-9.659.569s1.481-5.477 5.731-7.784 8.574-2.561 9.659-.569m79.341 25.081c.635 2.177-2.615 5.037-7.259 6.387-4.644 1.351-8.924.681-9.559-1.496s2.614-5.038 7.259-6.388c4.644-1.351 8.924-.681 9.559 1.497m106.803-30.647c3.997-2.72 6.199-6.445 4.919-8.319-1.279-1.873-5.556-1.187-9.553 1.534s-6.199 6.446-4.919 8.319c1.279 1.874 5.557 1.187 9.553-1.534m32.033 17.084c1.28 1.874-.923 5.598-4.919 8.319-3.997 2.721-8.274 3.408-9.554 1.534-1.279-1.874.923-5.598 4.92-8.319s8.273-3.408 9.553-1.534m-70.982-21.464c.349 1.244-1.095 2.735-3.223 3.329s-4.137.067-4.486-1.177c-.348-1.244 1.095-2.735 3.224-3.329s4.137-.067 4.485 1.177m13.308 29.653c2.129-.594 3.572-2.085 3.224-3.329a1.4 1.4 0 0 0-.13-.312 1.5 1.5 0 0 0-.056-.85c-.46-1.207-2.508-1.551-4.574-.767-1.948.74-3.218 2.217-2.97 3.396q-.07.35.021.685c.348 1.244 2.357 1.771 4.485 1.177m-137.899-3.341c2.107-.667 3.498-2.205 3.107-3.437s-2.416-1.69-4.523-1.023c-2.107.666-3.498 2.205-3.107 3.437.39 1.231 2.415 1.689 4.523 1.023m52.136-20.517c.391 1.231-1.001 2.77-3.108 3.437s-4.132.208-4.523-1.024 1.001-2.77 3.108-3.436c2.107-.667 4.132-.209 4.523 1.023m27.445 35.948c2.089-.721 3.44-2.296 3.017-3.516s-2.46-1.626-4.549-.905-3.439 2.296-3.016 3.517 2.459 1.626 4.548.904" fill="#1433D6"/>
  <path d="M494.759 283.234c1.051 2.01-1.572 5.452-5.859 7.688-4.288 2.236-8.616 2.419-9.668.409s1.572-5.452 5.859-7.688c4.288-2.236 8.616-2.419 9.668-.409m89.712-65.803c1.44 1.228.484 4.705-2.135 7.766s-5.91 4.545-7.35 3.317-.484-4.705 2.135-7.765c2.62-3.061 5.91-4.546 7.35-3.318" fill="#0069FF"/>
  <path d="M138.837 352.218c16.5 19 82.5 42.5 108.5 40-27.5 0-99.5-30-108.5-40m-26.036.5c16.775 27.401 94.935 70.896 128.202 73.224-34.629-5.792-118.975-58.736-128.202-73.224m-13.074 2c12.212 29.717 82.476 85.067 114.951 92.647-33.27-11.216-108.142-76.878-114.951-92.647m-28.164 7.721c-7.24 18.942 1.112 74.778 12.76 92.31-10.44-19.548-16.45-82.116-12.76-92.31m6.284 4.586c-2.072 25.12 27.266 88.862 47.25 105.747-19.242-19.709-48.12-92.3-47.25-105.747m118.706 187.186c7.073-10.755 33.25 24.235 33.25 24.235s-40.324-13.479-33.25-24.235" fill="#000C2A"/>
  <path d="M245.83 538.29c-27.341-5.442-44.11-17.072-44.11-17.072s15.049-3.2 34 2.5c0 0-6.849.725-5 4 1.028 1.814 7.696 7.193 15.11 10.572" fill="#0069FF"/>
  <path d="m293.72 564.464 24 20.51c-33.72-1.974-32-18.459-39.653-16.794s-98.347 12.282-112.17-46.452c74.323-10.181 96.823 34.121 110.323 41.095s1.847-12.306 37.5-18.049c0 0-10.72 15.726-20 19.69" fill="#1433D6"/>
  <path d="M193.72 523.853c6.5 2.666 27.3 17.967 40.5 19.28 10.767 1.07 24.261 7.308 32.669 11.946l-1.014-.983c-14.151-13.736-38.049-36.932-88.504-33.547 0 0 9.849.638 16.349 3.304" fill="#0069FF"/>
  <path d="M168.803 530.694a58 58 0 0 1-1.906-7.325C184.065 520.705 201.5 521.037 219 525c-14.5-5.5-35.681-5.659-53.103-3.272a56 56 0 0 0 2.906 8.966m117.177 28.892c3.081-4.73 8.579-11.726 27.74-14.812 0 0-1.22 1.726-2.72 3.726-16.189 3.296-21.817 7.531-25.02 11.086" fill="#fff"/>
  <path d="M168.523 530.018a55 55 0 0 1-.303-.832c4.859-6.461 11.515-4.031 20.658 1.995-.554-.816-.754-1.676-.51-2.502.74-2.507 5.294-3.754 10.172-2.784 4.878.969 8.233 3.787 7.492 6.294-.74 2.507-5.295 3.753-10.173 2.784a16.5 16.5 0 0 1-2.457-.686c1.527 1.08 3.115 2.224 4.767 3.414 13.622 9.817 77.082 37.091 68.035 16.714 3.99 3.872 7.199 6.953 10.016 8.408 2.767 1.429 4.477 1.755 5.754 1.322-.505.214-1.077.402-1.632.584-2.241.736-4.2 1.38-.342 3.271 0 0-.168.03-.491.082a4.6 4.6 0 0 0-1.442.098c-7.271 1.582-89.496 11.244-109.544-38.162m114.32 33.678q.189-.135.369-.296a2.5 2.5 0 0 1-.369.296" fill="#000C2A"/>
  <path d="M196.198 533.828c-3.472-.69-5.838-2.769-5.284-4.644.553-1.875 3.817-2.835 7.289-2.145s5.838 2.769 5.284 4.644-3.817 2.835-7.289 2.145" fill="#fff"/>
  <path d="M193.916 529.887c-.241.947 1.035 1.967 2.848 2.277 1.814.309 3.479-.208 3.719-1.156.18-.711-.491-1.462-1.603-1.923q-.015.16-.064.326c-.232.765-.975 1.271-1.659 1.131-.685-.139-1.053-.872-.821-1.636q.042-.137.104-.263c-1.3.035-2.338.51-2.524 1.244" fill="#000C2A"/>
  <path d="M194.4 550.424c-1.78-1.192-2.715-2.669-2.088-3.3s2.578-.175 4.358 1.016 2.715 2.669 2.088 3.3-2.578.175-4.358-1.016m36.608 10.046c2.214.505 3.793 1.55 3.527 2.334s-2.276 1.01-4.489.504c-2.214-.505-3.793-1.55-3.527-2.334.265-.784 2.275-1.01 4.489-.504" fill="#1433D6"/>
  <path d="M246.691 554.713c2.213.505 3.792 1.55 3.527 2.334-.266.784-2.276 1.01-4.49.505-2.213-.505-3.792-1.55-3.527-2.334.266-.784 2.276-1.01 4.49-.505m-34.721-29.798c2.214.505 3.793 1.55 3.527 2.334-.265.784-2.275 1.01-4.489.505-2.213-.506-3.793-1.551-3.527-2.334s2.276-1.01 4.489-.505" fill="#0069FF"/>
  <path d="M188.753 544.674c-.571-.447-.842-.973-.607-1.175.236-.202.889-.004 1.459.443s.842.973.606 1.175c-.235.202-.888.004-1.458-.443m50.241 19.201c.741.222 1.247.614 1.13.877s-.812.296-1.553.074-1.247-.614-1.13-.876c.116-.263.812-.296 1.553-.075" fill="#1433D6"/>
  <path d="M254.676 558.119c.741.221 1.247.614 1.13.876-.116.263-.812.296-1.553.075-.74-.222-1.247-.614-1.13-.877.117-.262.812-.296 1.553-.074" fill="#0069FF"/>
  <path d="M218.72 538.674c15 20.154 50 9.274 50 9.274-20.666-4.855-65-29.428-50-9.274" fill="#1433D6"/>
  <path d="M216.311 534.866C227.446 548.319 254 547.948 249.5 541.5c3.905 1.406 16.106 5.716 19.22 6.448 0 0-35 10.88-50-9.274-1.125-1.512-1.917-2.773-2.409-3.808" fill="#000C2A"/>
  <path d="M233.633 524.125c-6.392-2.093-17.091-3.807-31.13-3.05 3.319-.554 16.804-2.293 33.217 2.643 0 0-.973.103-2.087.407" fill="#fff"/>
  <path d="M81.837 356.718c1.6 3.6 3.5 19 2.5 39 2.5-5 5-17 4-28 3.349 3.5 52 19 88 17-27-2-71-12-94.5-28" fill="#000C2A"/>
  <path d="M133 383.5c-23-1.5-41 3-45.5 13L91 373z" fill="#000C2A"/>
  <g clip-path="url(#f)">
    <path d="M376.951 206.322c-5.832 6.641-13.576 9.423-14.879 7.795-.978-1.217 1.919-9.026 6.632-13.041 8.878-7.571 17.083-6.369 17.083-6.369s-4.751 6.962-8.844 11.623z" fill="#C6E3FF"/>
    <path d="M363.202 208.76c3.878-7.185 11.15-12.157 19.101-13.712a17.5 17.5 0 0 1 3.492-.349c-9.422-1.356-19.624 5.051-22.593 14.061" fill="#fff"/>
    <path d="M422.743 206.15c.816-.271 1.735-.832 2.674-1.406 1.456-.889 2.96-1.808 4.206-1.723 8.386.579 22.155-10.068 22.838-11.328.438-.811-5.117.299-11.166 1.507-6.323 1.263-13.187 2.634-14.309 2.032l.008-.008c-1.125-.603-3.752-7.105-6.167-13.086-2.304-5.702-4.416-10.931-4.852-10.121-.683 1.26-2.037 18.603 3.055 25.283.76.998.818 2.764.873 4.472.024.732.047 1.454.125 2.099-2.075 2.651-14.195 14.22-41.758 7.419-34.443-8.504-58.43 14.083-58.43 14.083s17.11 22.783 46.408 18.633c29.223-4.137 52.976-31.924 56.495-37.856" fill="#1433D6"/>
    <path d="M419.863 179.759c-4.348-7.607-3.829-.578-.471 18.187a3 3 0 0 0-.362-.647c-5.093-6.679-3.738-24.023-3.055-25.283.374-.695 1.983 3.059 3.888 7.743m.126 24.162c-2.187 2.743-14.327 14.128-41.719 7.369-33.226-8.204-56.723 12.526-58.341 14 8.837-3.944 30.063-11.212 56.071-4.79 37.711-1.738 41.54-10.912 43.258-15.026.259-.621.47-1.127.742-1.474z" fill="#C6E3FF"/>
    <path d="M426.985 195.232c2.073.649 4.387.09 6.522-.085 4.311-.583 8.553-1.51 12.779-2.47 1.092-.248 3.68-.868 4.748-1.06.393-.069.795-.13 1.196-.126.12.009.296.042.231.202.113-.144-.094-.273-.222-.29-2.036-.273-4.108.159-6.131.4-3.742.531-9.028 1.69-12.763 2.47-2.104.352-4.236 1.144-6.368.951zm-7.955 2.068c-3.456-6.746-3.149-14.664-3.279-22.057.016-1.081.016-2.163.224-3.226-2.073 6.983-1.852 19.534 3.055 25.283" fill="#fff"/>
    <path d="M319.84 225.373C331 240 408 239.5 420 204c0 0-15.5 16.5-43.909 12.326-35.387-8.72-56.251 9.047-56.251 9.047" fill="#0069FF"/>
    <path d="M346.409 238.513c-3.497-.691-5.981-3.027-5.548-5.217.433-2.191 3.619-3.407 7.116-2.716s5.981 3.027 5.548 5.217c-.433 2.191-3.618 3.406-7.116 2.716" fill="#C6E3FF"/>
    <path d="M346.607 237.513c-2.489-.492-4.244-2.219-3.921-3.857.324-1.638 2.604-2.568 5.093-2.076 2.49.492 4.245 2.218 3.921 3.857-.323 1.638-2.604 2.567-5.093 2.076" fill="#fff"/>
    <path d="M346.948 236.056c-1.298-.213-2.241-1.056-2.105-1.884.135-.827 1.298-1.324 2.596-1.111s2.241 1.056 2.105 1.883-1.298 1.325-2.596 1.112" fill="#1433D6"/>
    <path d="M347.166 234.642c-.491-.1-.778-.723-.642-1.391s.644-1.128 1.135-1.028.779.722.643 1.39-.644 1.129-1.136 1.029" fill="#fff"/>
    <path d="M335.264 229.269c-.759-.116-1.333-.475-1.283-.802s.705-.499 1.464-.384c.758.116 1.333.475 1.283.802s-.705.5-1.464.384" fill="#C6E3FF"/>
    <path d="M330.83 221.895c-2.882.37-8.116 3.18-8.116 3.18s5.773 1.415 8.663 1.053c2.89-.361 4.079-1.674 3.949-2.66s-1.605-1.95-4.488-1.581z" fill="#fff"/>
    <path d="M364.681 231.649c-1.281 1.093-2.64 1.604-3.035 1.143-.394-.462.324-1.721 1.605-2.814s2.639-1.604 3.034-1.142c.395.461-.323 1.721-1.604 2.813" fill="#1433D6"/>
    <path d="M376.785 236.024c-.569.5-1.177.738-1.36.531-.182-.206.132-.779.701-1.279.568-.5 1.177-.738 1.359-.531.183.207-.131.779-.7 1.279" fill="#0069FF"/>
    <path d="M336.437 235.455c-.634-.149-1.097-.491-1.033-.765s.631-.376 1.265-.228c.635.148 1.097.491 1.033.765s-.631.376-1.265.228" fill="#0069FF" opacity=".5"/>
    <path d="M411.267 213.488s-14.561 9.215-28.478 11.66c-22.19 3.902-42.057-2.814-42.057-2.814s5.321-10.289 21.988-11.255c0 0-3.457 4.37-.018 6.727 1.908 1.305 6.854 2.801 14.14 3.459 15.173 1.377 34.409-7.777 34.409-7.777z" fill="#1433D6"/>
    <path d="M416.5 207c-7 4.5-16.268 6.353-24.623 5.902-7.433-.258-14.521-2.765-21.87-3.6-12.725-1.621-25.803 1.175-37.115 7.052-4.678 2.47-9.167 5.405-13.036 9.019 8.554-7.012 18.919-11.704 29.684-14.102 3.526-.669 7.348-1.167 10.926-1.315 2.936-.025 6.504.043 9.421.419 7.358.762 14.485 3.309 21.96 3.368 8.436.275 18.153-1.243 24.653-6.743" fill="#fff"/>
    <path d="M330.157 234.96c22.357 16.986 49.331 10.384 70.102-5.638 6.678-5.089 12.825-10.911 18.126-17.412-5.652 6.178-13.893 10.807-20.65 15.719-20.888 15.5-44.235 16.961-67.57 7.339z" fill="#000C2A"/>
    <path d="M368.857 250.201c-8.279-3.116-13.615-9.381-12.535-11.175.796-1.339 9.138-1.369 14.562 1.629 10.225 5.638 11.987 13.733 11.987 13.733s-8.199-2.003-14.014-4.187m56.56-45.457c-1.686 1.03-5.352 5.275-8.109 8.386 3.029-3.867 7.025-11.63 5.692-17.63s4.5 8.5 11.5 3 8.57-2.456 14.634-3.933C445 198.5 437.003 203.414 431 203c-2.624 0-4.127.855-5.583 1.744" fill="#000C2A"/>
  </g>
  <g clip-path="url(#g)">
    <path d="M667.759 375.951c-2.133 7.472-7.238 12.598-8.887 11.796-1.235-.599-1.874-7.894.359-12.859 4.204-9.358 11.175-11.492 11.175-11.492s-1.154 7.32-2.651 12.564z" fill="#C6E3FF"/>
    <path d="M657.753 383.065c.376-7.169 4.281-13.857 10.013-18.087a15.4 15.4 0 0 1 2.643-1.592c-7.997 2.471-13.689 11.402-12.656 19.679" fill="#fff"/>
    <path d="M689.977 344.509S692 342.5 693 341c4.986-7.479 5.408-23.235 4.986-24.422-.274-.763-2.812 3.522-5.576 8.188-2.89 4.878-6.026 10.172-7.08 10.553v-.01c-1.056.381-6.851-1.722-12.183-3.657-5.082-1.844-9.743-3.535-9.47-2.774.423 1.187 10.97 12.264 18.33 12.859 2.493.263 4.493 1.763 4.885 3.208.514 2.915.959 17.64-19.686 31.67-25.802 17.528-25.125 46.489-25.125 46.489s24.954 2.198 39.456-19.401c14.467-21.544 10.252-53.406 8.44-59.194" fill="#1433D6"/>
    <path d="M693 341c-1 1.5-3.023 3.509-3.023 3.509l-.007.03c-.93 3.81-6.83 27.999-20.751 37.46-26.497 18.019-27.138 41.105-27.138 41.105s-.677-28.961 25.124-46.489c20.646-14.03 20.201-28.755 19.687-31.67-.392-1.445-2.392-2.945-4.885-3.208-7.36-.595-17.907-11.672-18.33-12.859-.273-.761 4.387.93 9.47 2.774 5.331 1.935 11.127 4.038 12.183 3.657v.01c1.054-.381 4.19-5.675 7.08-10.553 2.764-4.666 5.302-8.951 5.576-8.188.422 1.187 0 16.943-4.986 24.422" fill="#C6E3FF"/>
    <path d="m672.277 331.337-.807-.158c-2.716-.539-5.324-1.057-3.705 2.173-2.327-2.17-3.929-4.026-4.088-4.474-.258-.718 3.869.744 8.6 2.459" fill="#fff"/>
    <path d="m685.115 335.35.027-.003.059-.007.545.16c3.5.5 6.599-1.5 8.999-7.5 1.422-3.554 1.978-1.318 2.126 2.342-.783 3.914-2.008 7.864-3.871 10.658-.18.269-.392.554-.619.841-.248.314-.515.629-.777.928-.837.955-1.627 1.74-1.627 1.74l-.007.03c.007 12.961-6.803 40.5-20.724 49.961-23.733 16.139-26.75 23.841-27.116 27.881.365-4.088 3.354-24.722 27.116-40.881 11.482-8.519 21.997-32.494 17.501-36.946-.612-1.315-2.472-2.578-4.74-2.817a10 10 0 0 1-1.699-.301c4.688-.042.601-6.963-2.878-8.244l-.001-.001c3.162 1.115 5.981 2.029 7.293 2.15" fill="#0069FF"/>
    <path d="M689.977 344.509S692 342.5 693 341c3.994-5.992 5.06-17.297 5.108-22.166-1.861 6.425-7.207 16.963-12.763 16.479l-.015.006-.001-.007-.006-.001a1 1 0 0 1-.094.024c.174.515 2.109 6.516-1.831 6.686 1.614.497 2.866 1.498 3.348 2.53.042-2.091 2.772-1.11 3.226-.02zm-35.564 77.481c24.247-4.64 35.78-26.161 37.507-49.16.596-7.358.401-14.799-.736-22.086.736 34.256-13.111 65.536-36.761 71.246z" fill="#000C2A"/>
    <path d="M658.302 418.462c-.991.557-1.99.662-2.23.235-.241-.428.367-1.227 1.358-1.784s1.99-.662 2.23-.235c.241.428-.368 1.227-1.358 1.784m-5.194 1.848c-.52.241-1.025.255-1.13.03-.104-.224.233-.602.753-.843s1.025-.254 1.13-.029c.104.224-.233.601-.753.842" fill="#0069FF"/>
    <path d="M685.33 335.319c1.643-.974 2.637-2.816 3.777-4.315 2.152-3.162 4.038-6.481 5.894-9.809.48-.86 1.595-2.917 2.097-3.728.186-.298.382-.596.62-.857.076-.073.202-.169.268-.032-.027-.158-.234-.099-.321-.025-1.374 1.171-2.309 2.78-3.341 4.245-1.851 2.759-4.199 6.897-5.884 9.798-1.006 1.583-1.741 3.442-3.12 4.723zm-19.581 77.413c-1.784 1.339-3.945 1.472-4.826.298-.881-1.175-.149-3.212 1.635-4.551s3.945-1.473 4.826-.298c.882 1.174.15 3.212-1.635 4.551" fill="#fff"/>
    <path d="M662.528 411.923c.461.575 1.566.454 2.468-.27.903-.724 1.26-1.777.799-2.352-.346-.431-1.054-.47-1.767-.158q.089.084.167.189c.357.481.359 1.085.005 1.347s-.93.085-1.287-.397a2 2 0 0 1-.113-.177c-.496.643-.629 1.373-.272 1.818" fill="#000C2A"/>
    <path d="M647.626 415.31c-1.011 1.375-1.88 4.69-1.88 4.69s3.002-1.93 4.021-3.306c1.019-1.375.911-2.386.412-2.708-.5-.321-1.541-.058-2.553 1.317zm37.573-32.047c-.038 1.48-.502 2.669-1.036 2.656s-.935-1.223-.897-2.703.502-2.669 1.036-2.656.935 1.223.897 2.703m1.533-6.049c-.007.666-.209 1.204-.451 1.201s-.433-.544-.426-1.209c.008-.666.21-1.204.452-1.202s.433.544.425 1.21" fill="#0069FF"/>
    <path d="M686.882 349.598c-1.175 7.375-5.422 13.866-10.626 19.065-4.537 4.71-10.341 7.872-15.206 12.188-8.538 7.369-14.394 17.565-17.198 28.417-1.134 4.511-1.852 9.172-1.762 13.825.44-9.714 3.463-19.25 8.221-27.699 1.634-2.699 3.554-5.492 5.56-7.919 1.709-1.934 3.851-4.228 5.81-5.915 4.822-4.364 10.676-7.529 15.107-12.383 5.137-5.356 9.323-12.113 10.083-19.598z" fill="#fff"/>
    <path d="M686.494 352.623s-2.687 14.911-9.377 25.38c-10.663 16.694-26.823 25.571-26.823 25.571s-3.503-9.563 5.779-20.933c0 0 .776 4.836 4.348 4.01 1.979-.46 5.888-2.775 10.646-7.103 9.912-9.011 15.417-26.914 15.417-26.914z" fill="#000C2A"/>
    <path d="M650.169 403.168c-.536-1.935-2.254-10.533 5.904-20.527 0 0 .143.89.588 1.842-5.49 7.638-6.415 15.046-6.492 18.685" fill="#fff"/>
    <path d="M687.01 403.69c-6.336 4.51-13.525 5.329-14.303 3.661-.586-1.238 3.485-7.338 8.334-9.824 9.131-4.693 15.9-2.006 15.9-2.006s-5.484 4.999-9.931 8.169" fill="#000C2A"/>
    <path d="M674.763 402.999c4.775-5.371 12.003-8.154 19.121-7.885a16.6 16.6 0 0 1 3.057.407c-7.773-3.066-17.799.367-22.178 7.478" fill="#fff"/>
  </g>
  <path d="m294.162 564.841 23.558 20.133c-21.931-1.284-28.871-8.706-33.148-13.281-1.185-1.267-2.166-2.316-3.205-2.955.796.247 1.774.611 2.84 1.008 6.001 2.232 14.817 5.512 9.955-4.905" fill="#000C2A"/>
  <path d="m56.03 279.378-3.41-6.232-3.41-6.232 2.314 6.714 2.313 6.715a13.26 13.26 0 0 1-.166 9.123 13.27 13.27 0 0 1-6.013 6.864l-6.231 3.41-6.232 3.409 6.714-2.312 6.715-2.313a13.27 13.27 0 0 1 9.123.168 13.28 13.28 0 0 1 6.865 6.013l3.41 6.232 3.411 6.232-2.313-6.714-2.314-6.715a13.26 13.26 0 0 1 .166-9.123 13.27 13.27 0 0 1 6.013-6.864l6.232-3.41 6.231-3.409-6.714 2.312-6.714 2.313a13.27 13.27 0 0 1-9.124-.168 13.28 13.28 0 0 1-6.865-6.013m37.029 15.976a9.53 9.53 0 0 1-6.178 10.647 9.53 9.53 0 0 1 10.647 6.179 9.57 9.57 0 0 1 1.14-6.452 9.52 9.52 0 0 1 5.039-4.194 9.57 9.57 0 0 1-6.452-1.14 9.53 9.53 0 0 1-4.195-5.04m-63.714-20.843a5.04 5.04 0 0 1-.6 3.398 5.02 5.02 0 0 1-2.654 2.21 5.02 5.02 0 0 1 5.608 3.255 5.04 5.04 0 0 1 .6-3.398 5 5 0 0 1 2.654-2.21 5.02 5.02 0 0 1-5.608-3.255" fill="#fff"/>
  <defs>
    <linearGradient gradientUnits="userSpaceOnUse" id="a" x1="644.508" x2="409.145" y1="418.668" y2="566.589">
      <stop stop-color="#fff"/>
      <stop offset="1" stop-color="#DEEEFF" stop-opacity="0"/>
    </linearGradient>
    <linearGradient gradientUnits="userSpaceOnUse" id="b" x1="460.97" x2="674.139" y1="81.724" y2="206.133">
      <stop stop-color="#fff"/>
      <stop offset="1" stop-color="#DEEEFF" stop-opacity="0"/>
    </linearGradient>
    <linearGradient gradientUnits="userSpaceOnUse" id="c" x1="464.925" x2="328.673" y1="213.252" y2="286.87">
      <stop stop-color="#fff"/>
      <stop offset="1" stop-color="#DEEEFF" stop-opacity="0"/>
    </linearGradient>
    <linearGradient gradientUnits="userSpaceOnUse" id="e" x1="721.22" x2="520.72" y1="289.218" y2="290.218">
      <stop stop-color="#300091"/>
      <stop offset=".318" stop-color="#1433D6"/>
      <stop offset=".646" stop-color="#0069FF"/>
      <stop offset=".87" stop-color="#3086FF" stop-opacity="0"/>
    </linearGradient>
    <clipPath id="f">
      <path d="M404.233 132.602 310 225.271l58.278 59.081 94.233-92.668z" fill="#fff"/>
    </clipPath>
    <clipPath id="g">
      <path d="m631 313.396 5.232 116.083 72.886-3.396L703.886 310z" fill="#fff"/>
    </clipPath>
    <radialGradient cx="0" cy="0" gradientTransform="matrix(128.59762 49.43457 -94.18662 245.01425 315.22 95.218)" gradientUnits="userSpaceOnUse" id="d" r="1">
      <stop offset=".035" stop-color="#F4F9FF"/>
      <stop offset=".539" stop-color="#C6E3FF" stop-opacity="0"/>
    </radialGradient>
  </defs>
</svg>